<?xml version="1.0" encoding="utf-8"?>
<!-- Generator: Adobe Illustrator 18.1.0, SVG Export Plug-In . SVG Version: 6.00 Build 0)  -->
<!DOCTYPE svg PUBLIC "-//W3C//DTD SVG 1.1//EN" "http://www.w3.org/Graphics/SVG/1.1/DTD/svg11.dtd">
<svg version="1.1" id="Layer_1" xmlns="http://www.w3.org/2000/svg" xmlns:xlink="http://www.w3.org/1999/xlink" x="0px" y="0px"
	 viewBox="-45.6 0 701.9 792" enable-background="new -45.6 0 701.9 792" xml:space="preserve">
<path fill="#FFFFFF" d="M278.8,230.1c12.4,17.3,18.6,38.1,18.6,62.2c0,24.8-6.2,44.9-18.8,60.1c-7.1,8.5-17.5,16.2-31.2,23.3
	c20.7,7.7,36.5,19.7,47.3,36.1c10.5,16.5,15.8,36.3,15.8,59.9c0,24.1-6,46-18.2,65c-7.7,12.6-17.3,23.6-28.8,32.1
	c-13.1,10.1-28.2,16.9-46,20.6s-36.9,5.5-57.8,5.5H-24.1V186.8H173C222.8,187.4,258,201.9,278.8,230.1z M57.1,257.5v90h99.2
	c17.7,0,32.1-3.4,43.2-10.1c10.9-6.8,16.5-18.6,16.5-35.7c0-19-7.3-31.7-21.8-37.6c-12.6-4.3-28.7-6.4-48.3-6.4H57.1
	C57.1,257.8,57.1,257.5,57.1,257.5z M57.1,415.1v108.8h99.2c17.7,0,31.4-2.4,41.3-7.3c17.9-9,27-25.9,27-50.9
	c0-21.2-8.5-35.9-25.9-43.9c-9.6-4.5-23.3-6.8-40.9-6.8L57.1,415.1L57.1,415.1z M557.2,299.2c21.2,9.4,38.5,24.4,52.1,44.7
	c12.4,17.9,20.6,38.7,24.1,62.5c2.1,13.9,3,33.8,2.6,59.9H416.2c1.3,30.4,11.8,51.5,31.7,63.7c11.9,7.5,26.5,11.3,43.6,11.3
	c17.9,0,32.5-4.7,43.9-13.9c6.2-4.9,11.5-11.9,16.2-20.7h80.6c-2.1,17.9-11.9,36.1-29.3,54.5c-27,29.3-64.8,44-113.5,44
	c-40.2,0-75.7-12.4-106.2-37.2c-31.1-24.9-46.5-65.3-46.5-120.9c0-52.4,13.9-92.3,41.5-120.4c27.8-27.8,63.7-41.9,107.9-41.9
	C512.5,284.9,536.2,289.8,557.2,299.2z M439.1,367.2c-11.1,11.5-18.2,27.1-21,46.6h136c-1.5-21-8.5-36.8-21-47.7
	c-12.6-10.9-28.2-16.2-46.8-16.2C466.1,350.1,450.3,355.8,439.1,367.2z M572.5,205.8H397.6v50.7h174.9V205.8L572.5,205.8z"/>
</svg>
