<?xml version="1.0" encoding="utf-8"?>
<!-- Generator: Adobe Illustrator 18.1.0, SVG Export Plug-In . SVG Version: 6.00 Build 0)  -->
<!DOCTYPE svg PUBLIC "-//W3C//DTD SVG 1.1//EN" "http://www.w3.org/Graphics/SVG/1.1/DTD/svg11.dtd">
<svg version="1.1" id="Layer_1" xmlns="http://www.w3.org/2000/svg" xmlns:xlink="http://www.w3.org/1999/xlink" x="0px" y="0px"
	 viewBox="0 0 432 432" enable-background="new 0 0 432 432" xml:space="preserve">
<circle opacity="0.45" fill="#DFD3C0" cx="216" cy="215.6" r="212.7"/>
<g>
	<polygon fill="#FCFBF5" points="342.2,92.1 342.2,362.5 106.4,362.5 106.4,46.5 287.8,46.5 	"/>
	<ellipse fill="#F5BC93" cx="132.3" cy="71.4" rx="10.6" ry="11.1"/>
	<rect x="121.7" y="91.8" fill="#C9C9C9" width="28.3" height="2.7"/>
	<rect x="121.7" y="100.2" fill="#C9C9C9" width="65.4" height="2.7"/>
	<rect x="121.7" y="108.4" fill="#C9C9C9" width="45.8" height="2.7"/>
	<polygon fill="#F9F3D9" points="342.2,92.1 287.8,92.1 287.8,46.5 	"/>
	<polyline fill="#F9CBAB" points="106.4,362.5 106.4,350.8 342.2,350.8 342.2,362.5 	"/>
</g>
<g>
	<rect x="70.5" y="279.2" fill="#97D2C2" width="103.6" height="61"/>
	<circle fill="#F8AE5D" cx="85.5" cy="294.7" r="7.5"/>
	<rect x="78" y="310.9" fill="#FDFDFE" width="44" height="3"/>
	<rect x="78" y="317" fill="#FDFDFE" width="69.6" height="3"/>
	<rect x="78" y="322.9" fill="#FDFDFE" width="53.1" height="3"/>
</g>
<g>
	<g>
		<rect x="73.7" y="113.3" fill="#F5BC93" width="16.5" height="131.4"/>
		<path fill="#FFFDF0" d="M73.7,244.7l7.6,16.7c0.3,0.6,1.1,0.6,1.4,0l7.6-16.7H73.7z"/>
		<rect x="73.7" y="107.6" fill="#FFFDF0" width="16.5" height="5.7"/>
		<path fill="#97D2C2" d="M88.9,98.9H75c-0.7,0-1.3,0.6-1.3,1.3v7.4h16.5v-7.4C90.2,99.5,89.6,98.9,88.9,98.9z"/>
	</g>
	<path fill="#B2B3B3" d="M78,254.2h8l-3.3,7.3c-0.3,0.6-1.1,0.6-1.4,0L78,254.2z"/>
</g>
<path fill="#FFFFFF" d="M109.4,283.8L109.4,283.8z"/>
<line fill="none" x1="226" y1="143.9" x2="221.7" y2="143.9"/>
</svg>
