<?xml version="1.0" encoding="utf-8"?>
<!-- Generator: Adobe Illustrator 18.1.0, SVG Export Plug-In . SVG Version: 6.00 Build 0)  -->
<!DOCTYPE svg PUBLIC "-//W3C//DTD SVG 1.1//EN" "http://www.w3.org/Graphics/SVG/1.1/DTD/svg11.dtd">
<svg version="1.1" id="Layer_1" xmlns="http://www.w3.org/2000/svg" xmlns:xlink="http://www.w3.org/1999/xlink" x="0px" y="0px"
	 viewBox="-125 217 360 360" enable-background="new -125 217 360 360" xml:space="preserve">
<path fill="#FFFFFF" d="M147.2,250.3H-35.7c-31.8,0-57.6,25.8-57.6,57.6v60.9v122.1c0,31.8,25.9,57.6,57.6,57.6h182.9
	c31.8,0,57.6-25.8,57.6-57.6V368.8v-60.9C204.9,276.1,179,250.3,147.2,250.3z M163.8,284.6l6.6,0v6.6v44l-50.4,0.2l-0.2-50.5
	L163.8,284.6z M13.2,368.8c9.5-13.2,25-21.9,42.6-21.9s33,8.7,42.6,21.9c6.2,8.6,9.9,19.2,9.9,30.6c0,28.9-23.6,52.5-52.5,52.5
	S3.3,428.3,3.3,399.4C3.3,388,7,377.4,13.2,368.8z M175.8,490.9c0,15.8-12.8,28.6-28.6,28.6H-35.7c-15.8,0-28.6-12.8-28.6-28.6
	V368.8h44.5c-3.9,9.5-6,19.8-6,30.6c0,45,36.6,81.5,81.5,81.5c45,0,81.5-36.6,81.5-81.5c0-10.8-2.2-21.1-6-30.6h44.5V490.9z"/>
</svg>
