<?xml version="1.0" encoding="utf-8"?>
<!-- Generator: Adobe Illustrator 18.1.0, SVG Export Plug-In . SVG Version: 6.00 Build 0)  -->
<!DOCTYPE svg PUBLIC "-//W3C//DTD SVG 1.1//EN" "http://www.w3.org/Graphics/SVG/1.1/DTD/svg11.dtd">
<svg version="1.1" id="Layer_1" xmlns="http://www.w3.org/2000/svg" xmlns:xlink="http://www.w3.org/1999/xlink" x="0px" y="0px"
	 viewBox="0 0 612 792" enable-background="new 0 0 612 792" xml:space="preserve">
<path fill="#FFFFFF" d="M146.9,640.2H36.1V285.7h110.8V640.2z M88.6,241.3h-0.7c-40.1,0-66.1-27.1-66.1-61.4
	c0-35,26.7-61.5,67.7-61.5c40.8,0,66.1,26.5,66.8,61.4C156.3,214.3,130.3,241.3,88.6,241.3z M590,640.2H464.4V456.6
	c0-48-19.7-80.7-62.8-80.7c-33,0-51.4,22-59.9,43.5c-3.2,7.6-2.7,18.2-2.7,29.1v191.9H214.6c0,0,1.6-324.9,0-354.5h124.4v55.6
	c7.4-24.4,47.1-59,110.6-59c78.7,0,140.6,51.1,140.6,160.8v196.9H590z"/>
</svg>
