<?xml version="1.0" encoding="utf-8"?>
<!-- Generator: Adobe Illustrator 18.1.0, SVG Export Plug-In . SVG Version: 6.00 Build 0)  -->
<!DOCTYPE svg PUBLIC "-//W3C//DTD SVG 1.1//EN" "http://www.w3.org/Graphics/SVG/1.1/DTD/svg11.dtd">
<svg version="1.1" id="Scan_xA0_Image_1_" xmlns="http://www.w3.org/2000/svg" xmlns:xlink="http://www.w3.org/1999/xlink" x="0px"
	 y="0px" viewBox="0 0 507 504" enable-background="new 0 0 507 504" xml:space="preserve">
<path fill="#C5E2DA" d="M282,138.8c-4.3,5-14.9,8-20.3,3.4c-4.7-4-3.7-10.8-0.6-15.4C270,113.8,294.6,124.2,282,138.8z"/>
<path fill="#C5E2DA" d="M207.9,97.3c-3.4,2-7.2,2.8-11.1,2.9c-2.3,0.1-9.7,0.2-10.2-2.7c-0.4-2.1,4.8-5,5.9-6.9
	c1.3-2.3,1.6-5.2,0.9-7.7c-3.8-13.7-24.5-10.1-34.1-6.2c-15.7,6.3-39.9,51.7-40.6,55.4c-0.7,3.9,26,18.8,33,24.5
	c7.2-21.9,9.8-45.4,17.8-67c2.3-6.1,13.7-6.7,15.1,0.5c0.8,4.1-2.8,10.6-3.6,14.7c-1.2,5.7-2.3,11.4-3.8,17.1
	c-5,19.2-7.4,39.2-8.4,59c-0.4,7.8-1.6,16.8,1.1,24.4c1.5,4.2,3.9,6.4,7.8,8.2c3.5,1.7,8.2,3.2,3.4,7c-6.9,5.4-20.8,5.8-28.2,1.5
	c-8.6-5-9.5-14.7-8.3-23.6c1.2-9.1,6.5-22.4-0.1-30.1c-5.8-6.7-13.4-12.3-21.2-16.4c-2.8-1.5-8.9-5.9-12.3-5.1
	c-3.8,0.9-27.1,64.9-44.1,83.3c-10,10.9-28.9,5.6-37.4-4.5c-2.2-2.6-6.4-7.2-6.8-10.8c-0.5-4.9,3.7-5.5,7.2-4.3
	c7.8,2.6,16.7,4.2,24.7,1.3c7.9-2.9,11.3-11,15-18c3-5.7,5.9-11.4,8.6-17.2c2.8-6,14.6-27.6,15.3-31.9c0.5-2.7-0.3-2.5-2.8-2.5
	c-10.6-0.1-27.7,3.2-34.6,11.9c-2.4,3-3.8,7.7-6.8,2.4c-2.4-4.2-2.8-10.1-0.7-14.5c3.8-8,13.7-11.2,21.8-12.5
	c7.4-1.3,15.7-1.8,23.2-0.9c1.7,0.2,3.9,1.2,5.5,0.5c3.2-1.6,6.1-9.8,7.9-12.8c9-15.1,16.5-31.1,27.6-44.9
	c5.1-6.4,10.5-11.3,18.4-14c7.9-2.6,16.5-3.5,24.8-3.4c15.6,0.2,36.4,6.9,39.6,24.6C218.8,86.5,214.6,93.5,207.9,97.3
	C202.3,100.6,220.3,90.2,207.9,97.3z"/>
<path fill="#C5E2DA" d="M448,213.4c-7.4-4-2-13.6-0.9-19.9c1.4-8,4.2-21-2.4-27.4c-8.4-8.1-23.2-6.8-33.3-3.9
	c2-4.2,4.9-7.8,7.1-11.9c2.6-5,4.6-10.4,6.4-15.7c3.5-10.6,7.4-25.7,2.5-36.4c-4.7-10.5-21.7-17-30.4-7.9
	c-6.1,6.4-7.6,18.5-8.8,26.9c-2.4,16.8-4.1,33.8-6,50.7c-0.7,6.4-0.6,13.5-2.1,19.8c-1.6,7-12.1,13.8-18,16.9
	c-2.9,1.5-9.1,4.2-8.2-1.5c0.4-2.4,1.8-5,2.7-7.3c1-2.6,2-5.1,3-7.7c0.9-2.3,4.3-7.7,3.6-10.1c-1.3-4.4-9.5-5.2-13.1-3.7
	c-7.5,3-10.8,14.8-14.8,20.8c-4.2,6.3-25.1,23.6-28.3,7.2c-1.1-5.7,4.5-13,7.6-17.3c3.5-5,7.5-10.1,12.2-14
	c4.7-3.9,10.7-5.3,16.8-5.1c3.8,0.1,8.2,2.3,11.8,2.1c4.5-0.2,3.7-5.1,1.8-8c-3.6-5.6-12.4-8.4-18.6-9c-13.2-1.1-25.4,5-34.3,14.4
	c-9.9,10.5-18.2,22.9-19.1,37.7c-0.9,16.6,13.8,23.4,28.4,19.7c4.2-1.1,7.8-3.5,11.5-5.6c1.2-0.7,3.3-2.6,4.7-2.7
	c2.3-0.2,0.9,0.1,2.3,1.4c2.2,2,3.2,4.3,6.1,5.8c3.4,1.8,7.3,2.5,11.1,2.2c6.8-0.4,12.3-4.1,17.4-8.2c3.9-3.2,9.1-6.6,12.1-10.7
	c0.8,5.9-3.9,15.4,3.5,17.6c2.9,0.9,6.8,1.3,9.9,0.9c3.7-0.4,4.3-2.1,4.7-5.4c1.9-14.2,0.1-38.6,15.8-45.9
	c4.7-2.2,12.7-4.1,15.1,1.9c2.2,5.5,0.5,13.1-0.3,18.7c-0.9,6.3-2.7,12.9-2.5,19.3c0.3,7.9,6,13.7,12.9,16.5c10,4,19.9,3.3,28.3-3.1
	c3.3-2.6,7.6-5.8,10.2-9.2c2.3-2.9,2.1-10.8-2.9-8.3C468.9,210.1,456.8,218.2,448,213.4z M402.6,154.1c-2.7,3.4-2.1-4.9-2.1-5.8
	c0-4.1,0-8.1,0.3-12.2c0.4-7,0.6-19,6.4-24.1c7.7-6.7,4.2,16.6,3.6,19.5C409,139.8,406.7,146.8,402.6,154.1
	C402,154.8,404.3,151,402.6,154.1z"/>
<path fill="#C5E2DA" d="M261.6,222.2c-3.8,1.3-8,2-11.9,0.6c-5.3-2-5.7-5.9-8.1-10.2c-4.6,4.9-13.2,7.5-19.6,8.7
	c-8.5,1.5-16.5-0.7-22.6-7c-7.8-8.1-6.5-18.4-3.9-28.5c1.2-4.7,3.3-8.7,5.2-13.1c1.4-3.4,0.7-3.4-2.7-5.2c-3.4-1.8-11-4.4-13-7.8
	c-2.3-4,4.9-14.4,6.6-18.5c2.7-6.4,6-9.6,13.2-7.3c3.5,1.1,6.2,3.4,6.2,7.4c0,3.7-4.9,8-1.4,11c2.5,2.2,7.8,3.2,10.8,4.8
	c3.4,1.8,7,3.7,9.9,6.2c5.9,4.9,0.6,8.1-3.2,12.6c-5,5.8-11.7,14-10.7,22.3c0.9,8.1,9.4,13.8,16.7,8.8c7.1-4.9,10.9-15.1,13.9-22.7
	c1.7-4.4,3.2-8.8,4.6-13.3c1.3-4.2,2.5-13.4,5.8-16.4c3.4-3,18.9-3.4,21.7,0.5c2,2.8-1.3,8.4-2.4,11.2c-2.4,6.5-4.8,13-7.3,19.5
	c-1.7,4.4-4.5,10.2-3.9,15c0.5,4.5,3.9,4.4,7.5,3.5c2-0.5,8.7-3,7.3,2.5C280.1,208.3,276.1,217.2,261.6,222.2z"/>
<path fill="#B9DCD3" d="M193.6,166.2L193.6,166.2z"/>
<path fill="#C5E2DA" d="M399.5,245.3c0.5,2.2-1.2,5.7-1.9,7.8c-1.4,4.3-2.9,8.6-3.8,13.1c19.3-4.3,39.5-7,59.3-5.8
	c6.5,0.4,13.7,1,19.6,4c4.3,2.2,17,12,15.2,17.9c-1.6,5.3-16.7-1.1-20-2c-10.6-2.7-21.4-5.1-32.4-5.5c-9.9-0.3-19.9,0.8-29.6,2.9
	c-3.5,0.8-11.3,1.5-14.1,4.2c-2.8,2.7-3.3,12.1-4.1,15.8c-1.5,7.1-2.9,14.2-4.5,21.3c-3.2,13.7-16.7,46,3.7,53
	c2.6,0.9,7.4,0.5,7.5,4.2c0.1,3.5-4.9,5.3-7.6,6.3c-6.8,2.7-15,4.1-22,1.2c-12.4-5.1-10-16.4-8.2-27.1c4.1-24.3,11.1-47.9,16.1-71.9
	c-31.4,5.7-64.5,8.2-96.3,5.5c-17.7-1.5-50.2-5-51.8-28.6c-1.1-14.9,15.6-0.3,20.7,2.6c12.5,7,26.8,10.1,40.9,11.6
	c23.1,2.4,47.1,2,69.7-3.2c3.6-0.8,7.1-1.8,10.6-2.7c1.9-0.5,6.4-0.8,7.7-2.4c1.2-1.4,1.5-4.8,2-6.5c2.4-8.4,3-14.6,11.7-18
	C392.6,241.3,398.3,238.6,399.5,245.3z"/>
<path fill="#C5E2DA" d="M166.9,322.6c16.1,5.9,28.8,20.7,31.1,37.7c2.4,17.7-4,34.8-16.7,47.2c-11.3,11.1-32.8,15.4-48.2,13.3
	c-15.1-2-33.9-17.5-27.5-34.6c5.6-15.1,26-22.8,40.5-24.9c2.6-0.4,19.4-2.2,11.5,4.1c-6.2,4.9-13.3,7.8-18.8,13.8
	c-5.3,5.6-11.7,15.1-6.4,22.7c3.7,5.3,11.5,7.5,17.6,6.4c14.7-2.6,24.5-19.2,25.8-33c1.2-12.8-0.4-29.8-12.1-37.6
	c-6.4-4.3-14.6-7.6-22.4-7.6c-3.5,0-6.2,0.7-9.3-1.4c-2.7-1.9-4.7-5.3-2.9-8.6c4.4-8,13.3,0.4,19.2-1.3c4-1.1,7.1-6.6,8.9-10.3
	c3.4-6.8,4.5-15.1,4.1-22.6c-0.4-8.4-3.1-17.1-9.8-22.7c-9-7.5-24.1-8.1-34.6-3.9c-7.6,3-14.5,9.5-18.5,16.7c-1.7,3-3,6.4-3.2,9.9
	c-0.2,2.7,0.7,5.7,0.1,8.4c-1.3,5.3-6.2,3.8-9.2,0.9c-3.9-3.8-6.4-9.6-6.6-15c-0.6-17.3,23.2-26.9,36.7-31.3
	c17.2-5.6,38.8-7.1,54.7,3.1c21.2,13.5,22.7,44.4,6.3,62.2C175.6,315.5,166.6,321.8,166.9,322.6
	C172.6,324.7,166.8,322.3,166.9,322.6z"/>
<path fill="#C5E2DA" d="M307.4,371.4c-22.8-0.3-31-20.1-29.3-39.7c-2.1,0.9-5.1,0.6-6.7,2.4c-2.1,2.2-1.3,4.4-1.6,7.2
	c-0.7,7.1-4.4,14.1-9.2,19.3c-9,9.5-23.7,12.1-36,8.4c-26.1-7.7-30.2-42.2-13.8-61.1c4.4-5,10.2-9.3,16.8-10.8
	c3.8-0.8,6.2-0.3,5.4,3.9c-0.7,3.8-3.6,7.5-5.5,10.7c-2.7,4.5-4.6,9-5.6,14.2c-2.4,12.6,3.7,31,19.8,28.3c8.1-1.4,23.4-19.3,11.6-25
	c-5.3-2.5-10.3-2.5-14.1-7.6c-3.2-4.3-4.5-10.4-2.3-15.4c2.1-5,7.8-8.4,13.2-8c6.1,0.5,10.5,5.6,13.4,10.6c1.9,3.3,4.1,9.5,8,10.9
	c4.8,1.7,9.3-3.8,11.9-6.7c7.8-8.7,15.2-15,27.4-15.4c5.5-0.2,5.3,2.3,2.3,6.2c-4.5,6-8.5,11.5-10.8,18.9c-3.5,11-4.6,27.5,9.2,31.2
	c6,1.6,13.1,1,17.4-3.9c3.1-3.5,7.1-11.6,5.1-16.4c-2-4.8-9.3-5-13.1-7.9c-5.4-4.2-7.3-12.8-4.5-19c5.8-12.8,22-7,28.3,2.1
	c5,7.3,7.3,16.7,7.2,25.5C351.5,359.1,330.6,371.7,307.4,371.4z"/>
<path fill="#C5E2DA" d="M451.1,303.4c0,3.4,1.2,9-1,12c-3.7,4.9-8.7-3-11.1-5.4c-3.6-3.6-13.8-10.4-17.9-3.8
	c-3.9,6.3,7.5,12.5,11.5,15c11.8,7.2,26.4,18.5,19.8,34.1c-5.1,11.9-19.9,17.4-32.1,17.5c-9,0.1-24.8-2.3-26.4-13.4
	c-0.6-4.3,0-10.8,1.9-14.6c2.8-5.7,6.7-0.8,8.9,2.8c2.9,4.8,4.2,9.7,10.1,11.5c7,2.2,14.9-0.5,16.4-8.1c3.1-15.3-16-18.1-24.4-25.5
	c-13.2-11.4-4-30.7,10.9-34.9c12.8-3.6,34.5-4,33.6,14.1C451.1,304.4,451,303.4,451.1,303.4C451.1,306.7,451,303.4,451.1,303.4z"/>
<path fill="#C5E2DA" d="M83.2,352.9c9-20.9,24.9-39.5,28.4-62.5c0.6-4.3,0.2-7.6-0.2-11.7c-0.4-3.9,0.3-7.1,5-6
	c8.1,2,14.8,11.6,14.5,19.5c-0.5,11.4-7.3,23.1-13,32.6c-6.5,10.9-12.7,21.1-16.7,33.3c-3.9,12-7.4,25.2-7.4,38
	c0,5.2,1.3,10.1,2.1,15.2c0.6,3.7,0.3,6.3-4.1,5.4c-9.9-2.1-13.1-13.6-14-22.2C76.2,380.6,77.7,365.9,83.2,352.9z"/>
</svg>
