<?xml version="1.0" encoding="utf-8"?>
<!-- Generator: Adobe Illustrator 18.1.0, SVG Export Plug-In . SVG Version: 6.00 Build 0)  -->
<!DOCTYPE svg PUBLIC "-//W3C//DTD SVG 1.1//EN" "http://www.w3.org/Graphics/SVG/1.1/DTD/svg11.dtd">
<svg version="1.1" id="Scan_xA0_Image_1_" xmlns="http://www.w3.org/2000/svg" xmlns:xlink="http://www.w3.org/1999/xlink" x="0px"
	 y="0px" viewBox="0 0 507 504" enable-background="new 0 0 507 504" xml:space="preserve">
<path fill="#E5EFEB" d="M272.5,161.7c-3.8,4.5-13.2,7.1-18,3c-4.2-3.6-3.3-9.6-0.5-13.7C261.8,139.5,283.7,148.7,272.5,161.7z"/>
<path fill="#B9DCD3" d="M254.1,159.8c0.6-1.1,1.4-2.2,2.4-3C255.5,157.6,254.7,158.6,254.1,159.8z M252.4,167.4
	c0.1,0.9,0.3,1.7,0.6,2.4C252.8,169.1,252.5,168.3,252.4,167.4z"/>
<circle fill="#75707C" cx="253.5" cy="250.6" r="248.6"/>
<path fill="#C5E2DA" d="M280,146.5c-4,4.6-13.7,7.3-18.7,3.1c-4.4-3.7-3.4-10-0.5-14.2C268.9,123.4,291.6,133,280,146.5z"/>
<path fill="#C5E2DA" d="M211.6,108.2c-3.2,1.8-6.6,2.6-10.2,2.7c-2.1,0.1-8.9,0.2-9.4-2.5c-0.3-2,4.5-4.6,5.5-6.4
	c1.2-2.1,1.5-4.8,0.8-7.1c-3.5-12.6-22.6-9.3-31.5-5.7c-14.4,5.8-36.8,47.7-37.5,51.1c-0.7,3.6,24,17.3,30.4,22.6
	c6.6-20.2,9-41.9,16.4-61.8c2.1-5.7,12.6-6.2,13.9,0.5c0.7,3.8-2.6,9.8-3.3,13.6c-1.1,5.3-2.1,10.5-3.5,15.8
	c-4.6,17.7-6.8,36.2-7.8,54.4c-0.4,7.2-1.4,15.5,1,22.5c1.4,3.9,3.6,5.9,7.2,7.6c3.2,1.5,7.6,3,3.2,6.5c-6.4,5-19.2,5.3-26,1.4
	c-8-4.6-8.8-13.5-7.7-21.8c1.2-8.4,6-20.7-0.1-27.8c-5.3-6.2-12.4-11.3-19.6-15.2c-2.6-1.4-8.2-5.5-11.4-4.7
	c-3.5,0.8-25,59.8-40.6,76.9c-9.2,10-26.7,5.2-34.5-4.2c-2.1-2.4-5.9-6.7-6.3-9.9c-0.4-4.6,3.4-5,6.7-3.9c7.2,2.4,15.4,3.9,22.7,1.2
	c7.3-2.7,10.4-10.2,13.9-16.6c2.8-5.2,5.5-10.5,7.9-15.9c2.6-5.6,13.5-25.4,14.1-29.5c0.4-2.5-0.3-2.3-2.6-2.3
	c-9.8-0.1-25.6,2.9-31.9,11c-2.2,2.8-3.5,7.1-6.3,2.2c-2.2-3.9-2.6-9.3-0.7-13.4c3.5-7.4,12.6-10.3,20.1-11.6
	c6.8-1.2,14.5-1.7,21.4-0.8c1.6,0.2,3.6,1.1,5.1,0.4c3-1.5,5.6-9,7.3-11.8c8.3-14,15.3-28.7,25.4-41.5c4.7-5.9,9.7-10.5,17-12.9
	c7.3-2.4,15.2-3.2,22.9-3.1c14.4,0.2,33.6,6.4,36.5,22.7C221.6,98.2,217.8,104.6,211.6,108.2C206.4,111.2,223,101.6,211.6,108.2z"/>
<path fill="#C5E2DA" d="M433.1,215.3c-6.8-3.7-1.9-12.6-0.8-18.4c1.3-7.4,3.9-19.4-2.2-25.3c-7.8-7.5-21.4-6.2-30.8-3.6
	c1.8-3.8,4.6-7.2,6.5-11c2.4-4.6,4.3-9.6,5.9-14.5c3.2-9.8,6.8-23.7,2.3-33.6c-4.4-9.6-20-15.7-28.1-7.3c-5.6,5.9-7,17.1-8.1,24.8
	c-2.2,15.5-3.8,31.2-5.5,46.8c-0.7,5.9-0.6,12.5-1.9,18.3c-1.5,6.4-11.2,12.7-16.7,15.6c-2.7,1.4-8.4,3.9-7.5-1.4
	c0.4-2.2,1.7-4.6,2.5-6.7c0.9-2.4,1.8-4.7,2.7-7.1c0.8-2.1,4-7.1,3.4-9.3c-1.2-4-8.7-4.8-12.1-3.4c-6.9,2.8-9.9,13.7-13.6,19.2
	c-3.8,5.8-23.2,21.8-26.1,6.6c-1-5.2,4.2-12,7-16c3.2-4.6,6.9-9.4,11.3-13c4.4-3.6,9.9-4.9,15.5-4.7c3.5,0.1,7.5,2.1,10.8,1.9
	c4.1-0.2,3.4-4.7,1.7-7.4c-3.3-5.1-11.4-7.8-17.2-8.3c-12.2-1.1-23.4,4.6-31.6,13.3c-9.1,9.7-16.8,21.1-17.6,34.8
	c-0.9,15.3,12.7,21.6,26.2,18.2c3.9-1,7.2-3.2,10.6-5.2c1.1-0.6,3.1-2.4,4.3-2.5c2.2-0.2,0.8,0.1,2.1,1.3c2,1.9,2.9,4,5.7,5.4
	c3.1,1.6,6.8,2.3,10.3,2.1c6.2-0.4,11.3-3.8,16.1-7.6c3.6-2.9,8.4-6.1,11.1-9.8c0.7,5.4-3.6,14.2,3.2,16.2c2.7,0.8,6.3,1.2,9.1,0.9
	c3.5-0.4,3.9-1.9,4.3-5c1.7-13.1,0.1-35.6,14.6-42.4c4.4-2,11.7-3.8,13.9,1.8c2.1,5.1,0.5,12.1-0.2,17.2c-0.8,5.8-2.5,11.9-2.3,17.8
	c0.2,7.3,5.5,12.7,11.9,15.2c9.2,3.7,18.4,3.1,26.1-2.9c3.1-2.4,7-5.4,9.4-8.4c2.1-2.7,1.9-9.9-2.7-7.7
	C452.4,212.2,441.3,219.7,433.1,215.3z M391.2,160.6c-2.5,3.2-2-4.5-2-5.4c0-3.8,0-7.5,0.2-11.3c0.4-6.5,0.5-17.5,5.9-22.2
	c7.1-6.2,3.9,15.3,3.3,18C397.2,147.4,395,153.8,391.2,160.6C390.7,161.2,392.8,157.7,391.2,160.6z"/>
<path fill="#C5E2DA" d="M261.1,223.4c-3.5,1.2-7.4,1.9-11,0.6c-4.9-1.8-5.3-5.5-7.5-9.4c-4.3,4.6-12.2,6.9-18.1,8
	c-7.8,1.4-15.2-0.6-20.8-6.4c-7.2-7.4-6-17-3.6-26.3c1.1-4.4,3.1-8,4.8-12.1c1.3-3.2,0.6-3.2-2.5-4.8c-3.1-1.7-10.2-4.1-12-7.2
	c-2.2-3.7,4.5-13.3,6.1-17.1c2.5-5.9,5.5-8.9,12.1-6.7c3.2,1,5.8,3.2,5.7,6.8c0,3.4-4.5,7.4-1.3,10.2c2.3,2,7.2,3,9.9,4.4
	c3.1,1.6,6.4,3.4,9.2,5.7c5.4,4.6,0.6,7.5-2.9,11.6c-4.6,5.4-10.8,13-9.9,20.5c0.9,7.5,8.7,12.7,15.4,8.1c6.6-4.5,10.1-14,12.9-21
	c1.6-4,3-8.1,4.3-12.2c1.2-3.9,2.3-12.4,5.4-15.1c3.2-2.8,17.4-3.1,20,0.5c1.9,2.6-1.2,7.8-2.2,10.3c-2.2,6-4.4,12-6.7,17.9
	c-1.5,4.1-4.1,9.4-3.6,13.9c0.5,4.2,3.6,4,6.9,3.2c1.9-0.5,8-2.8,6.7,2.3C278.2,210.6,274.5,218.8,261.1,223.4z"/>
<path fill="#B9DCD3" d="M198.4,171.7L198.4,171.7z"/>
<path fill="#C5E2DA" d="M388.4,244.7c0.5,2.1-1.1,5.3-1.7,7.2c-1.3,4-2.6,8-3.5,12.1c17.8-4,36.5-6.5,54.7-5.4
	c6,0.4,12.6,0.9,18.1,3.7c3.9,2,15.7,11.1,14,16.5c-1.5,4.9-15.4-1-18.4-1.8c-9.8-2.5-19.7-4.7-29.9-5c-9.2-0.3-18.4,0.7-27.3,2.7
	c-3.2,0.7-10.4,1.4-13,3.8c-2.6,2.5-3,11.1-3.8,14.5c-1.4,6.5-2.6,13.1-4.2,19.6c-2.9,12.6-15.4,42.4,3.5,48.9
	c2.4,0.8,6.8,0.5,6.9,3.9c0.1,3.2-4.5,4.9-7,5.9c-6.2,2.5-13.9,3.8-20.3,1.2c-11.5-4.7-9.3-15.1-7.6-25
	c3.8-22.4,10.2-44.2,14.8-66.4c-28.9,5.2-59.5,7.6-88.9,5.1c-16.4-1.4-46.3-4.7-47.8-26.4c-1-13.8,14.4-0.2,19.1,2.4
	c11.5,6.4,24.7,9.3,37.8,10.7c21.3,2.2,43.4,1.8,64.3-2.9c3.3-0.7,6.5-1.7,9.8-2.5c1.7-0.4,5.9-0.7,7.1-2.2c1.1-1.3,1.4-4.5,1.8-6
	c2.2-7.7,2.7-13.5,10.8-16.6C382,241,387.3,238.5,388.4,244.7z"/>
<path fill="#C5E2DA" d="M173.7,316c14.8,5.5,26.6,19.1,28.7,34.8c2.2,16.4-3.7,32.1-15.4,43.5c-10.5,10.2-30.3,14.2-44.5,12.3
	c-13.9-1.9-31.3-16.2-25.4-31.9c5.2-13.9,24-21,37.3-23c2.4-0.4,17.9-2,10.6,3.7c-5.7,4.5-12.3,7.2-17.4,12.7
	c-4.9,5.2-10.8,14-5.9,20.9c3.4,4.9,10.6,6.9,16.2,5.9c13.6-2.4,22.6-17.7,23.8-30.4c1.1-11.8-0.4-27.5-11.1-34.7
	c-5.9-4-13.5-7.1-20.7-7c-3.2,0-5.7,0.7-8.6-1.3c-2.5-1.8-4.3-4.9-2.7-7.9c4-7.4,12.3,0.3,17.7-1.2c3.7-1,6.6-6.1,8.2-9.5
	c3.1-6.3,4.1-14,3.8-20.9c-0.4-7.8-2.9-15.8-9-20.9c-8.3-7-22.2-7.5-31.9-3.6c-7.1,2.8-13.4,8.8-17,15.4c-1.5,2.8-2.7,5.9-2.9,9.2
	c-0.2,2.5,0.7,5.2,0.1,7.7c-1.2,4.9-5.7,3.5-8.5,0.8c-3.6-3.5-5.9-8.8-6.1-13.8c-0.6-16,21.4-24.9,33.8-28.9
	c15.9-5.1,35.8-6.5,50.5,2.8c19.6,12.4,20.9,40.9,5.8,57.4C181.8,309.5,173.5,315.3,173.7,316C179,317.9,173.7,315.8,173.7,316z"/>
<path fill="#C5E2DA" d="M303.4,361c-21.1-0.3-28.6-18.5-27.1-36.6c-2,0.8-4.7,0.6-6.2,2.2c-1.9,2.1-1.2,4.1-1.4,6.7
	c-0.6,6.6-4,13-8.5,17.8c-8.3,8.8-21.9,11.1-33.2,7.8c-24.1-7.1-27.8-38.9-12.7-56.4c4-4.6,9.4-8.6,15.5-10c3.5-0.8,5.7-0.3,5,3.6
	c-0.7,3.5-3.3,6.9-5.1,9.9c-2.5,4.2-4.3,8.3-5.2,13.1c-2.2,11.6,3.4,28.6,18.2,26.1c7.5-1.3,21.6-17.8,10.7-23.1
	c-4.9-2.3-9.5-2.3-13.1-7c-2.9-4-4.1-9.6-2.2-14.2c2-4.6,7.2-7.7,12.2-7.3c5.7,0.4,9.7,5.2,12.4,9.8c1.8,3,3.7,8.7,7.3,10
	c4.4,1.6,8.6-3.5,11-6.2c7.2-8.1,14-13.9,25.3-14.2c5-0.2,4.9,2.1,2.1,5.7c-4.2,5.6-7.8,10.6-10,17.4c-3.3,10.1-4.2,25.3,8.5,28.8
	c5.6,1.5,12.1,0.9,16.1-3.6c2.9-3.3,6.5-10.7,4.7-15.2c-1.9-4.5-8.6-4.6-12.1-7.3c-5-3.9-6.7-11.8-4.1-17.5
	c5.4-11.9,20.3-6.4,26.1,2c4.6,6.7,6.8,15.4,6.7,23.5C344,349.7,324.8,361.3,303.4,361z"/>
<path fill="#C5E2DA" d="M435.9,298.3c0,3.2,1.1,8.3-1,11.1c-3.4,4.5-8-2.7-10.2-5c-3.3-3.3-12.7-9.6-16.6-3.5
	c-3.6,5.8,6.9,11.5,10.6,13.8c10.9,6.6,24.4,17.1,18.3,31.5c-4.7,11-18.4,16-29.7,16.1c-8.3,0.1-22.8-2.1-24.3-12.4
	c-0.6-3.9,0-9.9,1.7-13.5c2.6-5.3,6.2-0.7,8.2,2.6c2.7,4.5,3.9,8.9,9.3,10.6c6.4,2,13.7-0.4,15.1-7.5c2.9-14.1-14.7-16.7-22.5-23.5
	c-12.1-10.6-3.7-28.3,10-32.2c11.8-3.3,31.8-3.6,31,13C435.9,299.3,435.9,298.3,435.9,298.3C436,301.4,435.9,298.3,435.9,298.3z"/>
<path fill="#C5E2DA" d="M96.6,344c8.3-19.3,23-36.4,26.2-57.6c0.6-3.9,0.2-7-0.2-10.8c-0.4-3.6,0.3-6.6,4.6-5.5
	c7.5,1.8,13.6,10.7,13.4,18c-0.4,10.5-6.7,21.3-12,30.1c-6,10-11.7,19.5-15.4,30.7c-3.6,11.1-6.8,23.3-6.8,35c0,4.8,1.2,9.3,1.9,14
	c0.5,3.4,0.3,5.8-3.8,5c-9.1-1.9-12.1-12.5-13-20.5C90.1,369.6,91.4,356,96.6,344z"/>
</svg>
