<?xml version="1.0" encoding="utf-8"?>
<!-- Generator: Adobe Illustrator 18.1.0, SVG Export Plug-In . SVG Version: 6.00 Build 0)  -->
<!DOCTYPE svg PUBLIC "-//W3C//DTD SVG 1.1//EN" "http://www.w3.org/Graphics/SVG/1.1/DTD/svg11.dtd">
<svg version="1.1" id="Layer_1" xmlns="http://www.w3.org/2000/svg" xmlns:xlink="http://www.w3.org/1999/xlink" x="0px" y="0px"
	 viewBox="-125 217 360 360" enable-background="new -125 217 360 360" xml:space="preserve">
<path fill="#FFFFFF" d="M210.8,320.8c-11.4,5.1-23.7,8.5-36.5,10c13.1-7.9,23.2-20.3,28-35.2c-12.3,7.3-25.9,12.6-40.4,15.4
	c-11.6-12.4-28.1-20.1-46.5-20.1c-35.1,0-63.6,28.5-63.6,63.6c0,5,0.5,9.8,1.6,14.5c-52.9-2.7-99.8-28-131.2-66.5
	c-5.5,9.4-8.6,20.4-8.6,32c0,22.1,11.2,41.5,28.3,53c-10.4-0.3-20.3-3.2-28.8-7.9v0.8c0,30.8,21.9,56.6,51.1,62.4
	c-5.3,1.5-11,2.2-16.8,2.2c-4.1,0-8.1-0.4-12-1.1c8.1,25.3,31.6,43.7,59.4,44.2c-21.8,17.1-49.2,27.2-79,27.2
	c-5.1,0-10.2-0.3-15.2-0.9c28.2,18,61.6,28.6,97.6,28.6c117.1,0,181.1-97,181.1-181.1c0-2.8-0.1-5.5-0.2-8.2
	C191.5,344.8,202.3,333.6,210.8,320.8"/>
</svg>
