<?xml version="1.0" encoding="utf-8"?>
<!-- Generator: Adobe Illustrator 18.1.0, SVG Export Plug-In . SVG Version: 6.00 Build 0)  -->
<!DOCTYPE svg PUBLIC "-//W3C//DTD SVG 1.1//EN" "http://www.w3.org/Graphics/SVG/1.1/DTD/svg11.dtd">
<svg version="1.1" id="Layer_1" xmlns="http://www.w3.org/2000/svg" xmlns:xlink="http://www.w3.org/1999/xlink" x="0px" y="0px"
	 viewBox="0 0 432 432" enable-background="new 0 0 432 432" xml:space="preserve">
<circle opacity="0.45" fill="#DFD3C0" cx="216" cy="215.9" r="214.6"/>
<circle fill="#C9C9C9" cx="72" cy="127.5" r="12.2"/>
<g>
	<path fill="#CCCCCC" d="M401.2,298.7H30.8c-1,0-1.9-0.8-1.9-1.9v-23.5h374.2v23.5C403.1,297.8,402.2,298.7,401.2,298.7z"/>
	<path fill="#454545" d="M403.1,273.3H28.9V61c0-3,2.4-5.5,5.5-5.5h363.2c3,0,5.5,2.4,5.5,5.5V273.3z"/>
	<circle fill="#FFFFFF" cx="216" cy="286.4" r="6.1"/>
	<rect x="41.5" y="67.6" fill="#EAEAF6" width="348.3" height="194"/>
	<polygon fill="#BABABA" points="257.7,329.2 173.7,329.2 180,298.7 252,298.7 	"/>
	<path fill="#D6D6D6" d="M287.7,337.8H144.3c-0.6,0-1.2-0.5-1.2-1.2v-6.3c0-0.6,0.5-1.2,1.2-1.2h143.4c0.6,0,1.2,0.5,1.2,1.2v6.3
		C288.9,337.3,288.3,337.8,287.7,337.8z"/>
	<rect x="59.1" y="135.9" fill="#F8AE5D" width="97.2" height="37.5"/>
	<rect x="168.7" y="135.9" fill="#68B5B5" width="97.2" height="37.5"/>
	<rect x="279.7" y="135.9" fill="#363356" width="97.2" height="37.5"/>
	<rect x="292.3" y="93.8" fill="#C9C9C9" width="32.4" height="5.3"/>
	<rect x="252.7" y="93.8" fill="#C9C9C9" width="32.4" height="5.3"/>
	<rect x="331.6" y="93.8" fill="#C9C9C9" width="32.4" height="5.3"/>
	<g>
		<rect x="59.1" y="179.2" fill="#C9C9C9" width="70.1" height="4.2"/>
		<rect x="59.1" y="189.2" fill="#C9C9C9" width="97.2" height="4.2"/>
		<rect x="59.1" y="199.2" fill="#C9C9C9" width="97.2" height="4.2"/>
		<rect x="59.1" y="209.7" fill="#C9C9C9" width="97.2" height="4.2"/>
		<rect x="59.1" y="219.7" fill="#C9C9C9" width="84" height="4.2"/>
	</g>
	<g>
		<rect x="168.7" y="219.7" fill="#C9C9C9" width="84" height="4.2"/>
		<rect x="168.7" y="179.2" fill="#C9C9C9" width="70.1" height="4.2"/>
		<rect x="168.7" y="189.2" fill="#C9C9C9" width="97.2" height="4.2"/>
		<rect x="168.7" y="199.2" fill="#C9C9C9" width="97.2" height="4.2"/>
		<rect x="168.7" y="209.7" fill="#C9C9C9" width="97.2" height="4.2"/>
	</g>
	<g>
		<rect x="279.7" y="219.7" fill="#C9C9C9" width="84" height="4.2"/>
		<rect x="279.7" y="179.2" fill="#C9C9C9" width="70.1" height="4.2"/>
		<rect x="279.7" y="189.2" fill="#C9C9C9" width="97.2" height="4.2"/>
		<rect x="279.7" y="199.2" fill="#C9C9C9" width="97.2" height="4.2"/>
		<rect x="279.7" y="209.7" fill="#C9C9C9" width="97.2" height="4.2"/>
	</g>
	<polygon opacity="0.27" fill="#FFFFFF" points="41.5,261.6 41.5,67.6 353.9,67.6 	"/>
</g>
<g>
	<path fill="#545554" d="M370.9,340.9h-95.1c-2.4,0-4.3-1.9-4.3-4.3V195.6c0-2.4,1.9-4.3,4.3-4.3h95.1c2.4,0,4.3,1.9,4.3,4.3v141.1
		C375.1,339,373.2,340.9,370.9,340.9z"/>
	<rect x="276.8" y="203.6" fill="#DCDEEF" width="93.1" height="120.7"/>
	<circle fill="#333333" cx="323.3" cy="333.1" r="3.8"/>
	<circle cx="323.3" cy="197.7" r="1.9"/>
</g>
<path opacity="0.51" fill="#FFFFFF" d="M369.9,203.3c-5.1,0-93.1,0-93.1,0V297L369.9,203.3z"/>
<g>
	<path fill="#454545" d="M110.2,340.1H58.1c-1.5,0-2.7-1.2-2.7-2.7v-102c0-1.5,1.2-2.7,2.7-2.7h52.1c1.5,0,2.7,1.2,2.7,2.7v102
		C112.9,338.9,111.7,340.1,110.2,340.1z"/>
	<rect x="58.3" y="244.3" fill="#DCDEEF" width="51.6" height="82.2"/>
	<path fill="#C9C9C9" d="M92.2,240.4H80.3c-0.2,0-0.4-0.2-0.4-0.4V239c0-0.2,0.2-0.4,0.4-0.4h11.9c0.2,0,0.4,0.2,0.4,0.4v1.1
		C92.5,240.3,92.4,240.4,92.2,240.4z"/>
	<circle cx="76.9" cy="239.5" r="1.2"/>
	<polygon opacity="0.51" fill="#FFFFFF" points="109.8,263.6 58.3,301.3 58.3,244.3 109.8,244.3 	"/>
	<circle fill="none" stroke="#232323" stroke-width="0.5" stroke-miterlimit="10" cx="84.2" cy="333.1" r="3.3"/>
</g>
<circle fill="#C9C9C9" cx="70.5" cy="96.4" r="12.2"/>
<polygon fill="#ABABAB" points="180,298.7 252,298.7 252.7,302.8 179.1,302.8 "/>
</svg>
